<svg id="36bcf244-ca09-402d-8cd5-af0d0a96d165" data-name="圖層 1" xmlns="http://www.w3.org/2000/svg" xmlns:xlink="http://www.w3.org/1999/xlink" viewBox="0 0 180.03 381.16"><defs><clipPath id="c5de9704-1bfa-4f02-bac9-1d0b6fbc5458"><path d="M156.84,0h-132a35.52,35.52,0,0,0-6.64.46,21.73,21.73,0,0,0-5.81,2A23.08,23.08,0,0,0,7.66,5.67,22.55,22.55,0,0,0,.82,16.57a22.66,22.66,0,0,0-.66,3.31q-.09.77-.13,1.54c0,.82,0,1.63,0,2.45V133.63q0,51.24,0,102.49T0,338.6Q0,343.79,0,349c0,1.73,0,3.45,0,5.18s0,3.45,0,5.18c0,.39,0,.79.06,1.17a20.38,20.38,0,0,0,.33,2.31,23.79,23.79,0,0,0,.9,3.32,21.86,21.86,0,0,0,1.4,3.14,22.7,22.7,0,0,0,16,11.52q.85.15,1.72.24c.72.07,1.45.1,2.18.11H157.44c.77,0,1.54,0,2.3-.12.61-.06,1.21-.15,1.82-.27a23.48,23.48,0,0,0,10-4.61,22.37,22.37,0,0,0,3.46-3.46,22.77,22.77,0,0,0,1.44-2,22.47,22.47,0,0,0,1.22-2.15q.4-.82.74-1.67c.22-.57.42-1.14.6-1.73a22.65,22.65,0,0,0,.81-3.87c0-.2,0-.39.06-.58s0-.39,0-.58,0-.39,0-.59,0-.39,0-.58,0-.68,0-1V219q0-8.86,0-17.72V158.51q0-8.23,0-16.45,0-5.76,0-11.51V71.29q0-6.63,0-13.27V22.41c0-.59,0-1.18-.08-1.77s-.09-.91-.16-1.36a22.73,22.73,0,0,0-.57-2.69A22.31,22.31,0,0,0,177.88,13,22.71,22.71,0,0,0,163.23.78a22.38,22.38,0,0,0-2.71-.55c-.46-.06-.92-.11-1.37-.15C158.38,0,157.61,0,156.84,0Z" style="fill:none"/></clipPath></defs><title>直三色</title><g style="clip-path:url(#c5de9704-1bfa-4f02-bac9-1d0b6fbc5458)"><rect x="59.85" y="-33.93" width="60.33" height="476.74" style="fill:#e60012"/></g></svg>